<svg width="205" height="200" viewBox="0 0 205 200" fill="none" xmlns="http://www.w3.org/2000/svg">
<path d="M88 36.0818V9.00255C88 5.18555 84.8978 2.73689 81.2195 3.45708L44.1441 11.5232C39.5277 12.5315 37.0032 15.0522 37.0032 19.0853L37.1475 99.171C37.508 102.7 35.8491 105.004 32.6753 105.653L21.2065 108.029C6.78031 111.054 0 118.4 0 129.275C0 140.294 8.51142 148 20.4852 148C31.0884 148 46.9572 140.222 46.9572 119.264V53.3665C46.9572 49.5494 47.6786 48.7572 51.0687 48.037L84.0329 40.8351C86.4851 40.331 88 38.4584 88 36.0818Z" fill="white"/>
<path d="M132 88.0818V61.0025C132 57.1855 128.898 54.7369 125.219 55.4571L88.1441 63.5232C83.5277 64.5315 81.0032 67.0522 81.0032 71.0853L81.1475 151.171C81.508 154.7 79.8491 157.004 76.6753 157.653L65.2065 160.029C50.7803 163.054 44 170.4 44 181.275C44 192.294 52.5114 200 64.4852 200C75.0884 200 90.9572 192.222 90.9572 171.264V105.366C90.9572 101.549 91.6786 100.757 95.0687 100.037L128.033 92.8351C130.485 92.331 132 90.4584 132 88.0818Z" fill="white"/>
<path d="M205 53.0818V26.0025C205 22.1855 201.898 19.7369 198.219 20.4571L161.144 28.5232C156.528 29.5315 154.003 32.0522 154.003 36.0853L154.147 116.171C154.508 119.7 152.849 122.004 149.675 122.653L138.206 125.029C123.78 128.054 117 135.4 117 146.275C117 157.294 125.511 165 137.485 165C148.088 165 163.957 157.222 163.957 136.264V70.3665C163.957 66.5494 164.679 65.7572 168.069 65.037L201.033 57.8351C203.485 57.331 205 55.4584 205 53.0818Z" fill="white"/>
</svg>
